<?xml version="1.0" encoding="UTF-8" standalone="no"?>
<!-- Created with Inkscape (http://www.inkscape.org/) -->

<svg xmlns:dc="http://purl.org/dc/elements/1.1/"
   xmlns:cc="http://creativecommons.org/ns#"
   xmlns:rdf="http://www.w3.org/1999/02/22-rdf-syntax-ns#"
   xmlns:svg="http://www.w3.org/2000/svg"
   xmlns="http://www.w3.org/2000/svg"
   xmlns:sodipodi="http://sodipodi.sourceforge.net/DTD/sodipodi-0.dtd"
   xmlns:inkscape="http://www.inkscape.org/namespaces/inkscape" version="1.1" id="svg3743" width="1001" height="1001" viewBox="0 0 1001 1001" sodipodi:docname="amuzil.svg" inkscape:version="0.92.4 (5da689c313, 2019-01-14)">
   <metadata id="metadata3749">
      <rdf:RDF>
         <cc:Work rdf:about="">
            <dc:format>image/svg+xml</dc:format>
            <dc:type rdf:resource="http://purl.org/dc/dcmitype/StillImage" />
         </cc:Work>
      </rdf:RDF>
   </metadata>
   <defs id="defs3747" />
   <sodipodi:namedview pagecolor="#000000" bordercolor="#666666" borderopacity="1" objecttolerance="10" gridtolerance="10" guidetolerance="10" inkscape:pageopacity="0" inkscape:pageshadow="2" inkscape:window-width="2498" inkscape:window-height="1057" id="namedview3745" showgrid="false" inkscape:zoom="256" inkscape:cx="-0.20024797" inkscape:cy="1000.5806" inkscape:window-x="54" inkscape:window-y="-8" inkscape:window-maximized="1" inkscape:current-layer="svg3743" />
   <path style="fill:#ffffff" d="M -0.12936621,500.43961 V -0.06039412 H 500.37063 1000.8707 V 500.43961 1000.9396 h -34.50007 -34.5 l -0.0554,-392.74999 -0.0555,-392.75 -196.44481,392.75 -196.44481,392.74999 H 500.37062 461.87113 L 265.42632,608.18961 68.9815,215.43961 l -0.05544,392.75 -0.05544,392.74999 h -34.5 -34.50000121 z m 465.99999621,-39.5 V 68.939605 h -196 c -107.8,0 -195.999997,0.224847 -195.999997,0.49966 0,0.654397 391.422207,783.500345 391.749397,783.500345 0.13783,0 0.2506,-176.4 0.2506,-392 z M 926.81519,69.689605 c 0.0305,-0.4125 -88.14455,-0.75 -195.94456,-0.75 h -196 l 0.0554,392.250005 0.0554,392.25 195.8892,-391.5 C 838.60964,246.61461 926.7847,70.102105 926.81519,69.689605 Z" id="path3757" inkscape:connector-curvature="0" />
</svg>
